<svg width="60" height="60" viewBox="0 0 60 60" fill="none" xmlns="http://www.w3.org/2000/svg">
<g clip-path="url(#clip0_89101_1491)">
<rect width="60" height="60" rx="30" fill="white"/>
<rect width="60" height="60" rx="30" fill="black"/>
<path d="M20.376 43.252C18.528 43.252 16.872 42.952 15.408 42.352C13.944 41.752 12.768 40.864 11.88 39.688C11.016 38.512 10.56 37.096 10.512 35.44H17.064C17.16 36.376 17.484 37.096 18.036 37.6C18.588 38.08 19.308 38.32 20.196 38.32C21.108 38.32 21.828 38.116 22.356 37.708C22.884 37.276 23.148 36.688 23.148 35.944C23.148 35.32 22.932 34.804 22.5 34.396C22.092 33.988 21.576 33.652 20.952 33.388C20.352 33.124 19.488 32.824 18.36 32.488C16.728 31.984 15.396 31.48 14.364 30.976C13.332 30.472 12.444 29.728 11.7 28.744C10.956 27.76 10.584 26.476 10.584 24.892C10.584 22.54 11.436 20.704 13.14 19.384C14.844 18.04 17.064 17.368 19.8 17.368C22.584 17.368 24.828 18.04 26.532 19.384C28.236 20.704 29.148 22.552 29.268 24.928H22.608C22.56 24.112 22.26 23.476 21.708 23.02C21.156 22.54 20.448 22.3 19.584 22.3C18.84 22.3 18.24 22.504 17.784 22.912C17.328 23.296 17.1 23.86 17.1 24.604C17.1 25.42 17.484 26.056 18.252 26.512C19.02 26.968 20.22 27.46 21.852 27.988C23.484 28.54 24.804 29.068 25.812 29.572C26.844 30.076 27.732 30.808 28.476 31.768C29.22 32.728 29.592 33.964 29.592 35.476C29.592 36.916 29.22 38.224 28.476 39.4C27.756 40.576 26.7 41.512 25.308 42.208C23.916 42.904 22.272 43.252 20.376 43.252ZM42.5244 43.252C40.6764 43.252 39.0204 42.952 37.5564 42.352C36.0924 41.752 34.9164 40.864 34.0284 39.688C33.1644 38.512 32.7084 37.096 32.6604 35.44H39.2124C39.3084 36.376 39.6324 37.096 40.1844 37.6C40.7364 38.08 41.4564 38.32 42.3444 38.32C43.2564 38.32 43.9764 38.116 44.5044 37.708C45.0324 37.276 45.2964 36.688 45.2964 35.944C45.2964 35.32 45.0804 34.804 44.6484 34.396C44.2404 33.988 43.7244 33.652 43.1004 33.388C42.5004 33.124 41.6364 32.824 40.5084 32.488C38.8764 31.984 37.5444 31.48 36.5124 30.976C35.4804 30.472 34.5924 29.728 33.8484 28.744C33.1044 27.76 32.7324 26.476 32.7324 24.892C32.7324 22.54 33.5844 20.704 35.2884 19.384C36.9924 18.04 39.2124 17.368 41.9484 17.368C44.7324 17.368 46.9764 18.04 48.6804 19.384C50.3844 20.704 51.2964 22.552 51.4164 24.928H44.7564C44.7084 24.112 44.4084 23.476 43.8564 23.02C43.3044 22.54 42.5964 22.3 41.7324 22.3C40.9884 22.3 40.3884 22.504 39.9324 22.912C39.4764 23.296 39.2484 23.86 39.2484 24.604C39.2484 25.42 39.6324 26.056 40.4004 26.512C41.1684 26.968 42.3684 27.46 44.0004 27.988C45.6324 28.54 46.9524 29.068 47.9604 29.572C48.9924 30.076 49.8804 30.808 50.6244 31.768C51.3684 32.728 51.7404 33.964 51.7404 35.476C51.7404 36.916 51.3684 38.224 50.6244 39.4C49.9044 40.576 48.8484 41.512 47.4564 42.208C46.0644 42.904 44.4204 43.252 42.5244 43.252Z" fill="#F06500"/>
</g>
<defs>
<clipPath id="clip0_89101_1491">
<rect width="60" height="60" rx="30" fill="white"/>
</clipPath>
</defs>
</svg>
